<svg xmlns="http://www.w3.org/2000/svg" xmlns:xlink="http://www.w3.org/1999/xlink" zoomAndPan="magnify" preserveAspectRatio="xMidYMid meet" version="1.0" viewBox="110.68 164.6 153.74 45.75"><defs><g/><clipPath id="8e983924cb"><path d="M 113.671875 167.597656 L 261.328125 167.597656 L 261.328125 207.402344 L 113.671875 207.402344 Z M 113.671875 167.597656 " clip-rule="nonzero"/></clipPath><clipPath id="ce20e17bdb"><path d="M 113.675781 167.597656 L 261.417969 167.597656 L 261.417969 207.347656 L 113.675781 207.347656 Z M 113.675781 167.597656 " clip-rule="nonzero"/></clipPath><clipPath id="69a22fbc96"><path d="M 118.832031 171.339844 L 160.828125 171.339844 L 160.828125 203.660156 L 118.832031 203.660156 Z M 118.832031 171.339844 " clip-rule="nonzero"/></clipPath></defs><g clip-path="url(#8e983924cb)"><path fill="#ffffff" d="M 113.671875 167.597656 L 261.328125 167.597656 L 261.328125 207.402344 L 113.671875 207.402344 Z M 113.671875 167.597656 " fill-opacity="1" fill-rule="nonzero"/></g><g clip-path="url(#ce20e17bdb)"><path stroke-linecap="butt" transform="matrix(0.750536, 0, 0, 0.749117, 113.675073, 167.599355)" fill="none" stroke-linejoin="miter" d="M 0.000943612 -0.00226713 L 196.849924 -0.00226713 L 196.849924 53.060235 L 0.000943612 53.060235 L 0.000943612 -0.00226713 " stroke="#000000" stroke-width="6" stroke-opacity="1" stroke-miterlimit="4"/></g><g clip-path="url(#69a22fbc96)"><path fill="#000000" d="M 118.832031 171.339844 L 160.828125 171.339844 L 160.828125 203.660156 L 118.832031 203.660156 Z M 118.832031 171.339844 " fill-opacity="1" fill-rule="nonzero"/></g><g fill="#ffffff" fill-opacity="1"><g transform="translate(127.515096, 192.47026)"><g><path d="M 1.582031 0 L 5.335938 0 C 8.671875 0 10.90625 -2.21875 10.90625 -5.429688 C 10.90625 -8.640625 8.671875 -10.859375 5.335938 -10.859375 L 1.582031 -10.859375 Z M 2.945312 -1.304688 L 2.945312 -9.554688 L 5.273438 -9.554688 C 7.800781 -9.554688 9.507812 -7.894531 9.507812 -5.429688 C 9.507812 -2.960938 7.816406 -1.304688 5.335938 -1.304688 Z M 2.945312 -1.304688 "/></g></g></g><g fill="#ffffff" fill-opacity="1"><g transform="translate(140.494261, 192.47026)"><g><path d="M 8.703125 0 L 10.066406 0 L 10.066406 -10.859375 L 8.703125 -10.859375 L 8.703125 -6.1875 L 2.945312 -6.1875 L 2.945312 -10.859375 L 1.582031 -10.859375 L 1.582031 0 L 2.945312 0 L 2.945312 -4.886719 L 8.703125 -4.886719 Z M 8.703125 0 "/></g></g></g><g fill="#000000" fill-opacity="1"><g transform="translate(163.635953, 189.079048)"><g><path d="M 5.042969 0.234375 C 7.738281 0.234375 9.335938 -1.039062 9.335938 -3.179688 C 9.335938 -4.980469 8.175781 -6.035156 5.539062 -6.625 C 4.140625 -6.933594 3.628906 -7.273438 3.628906 -7.832031 C 3.628906 -8.359375 4.09375 -8.6875 4.824219 -8.6875 C 5.691406 -8.6875 6.1875 -8.234375 6.1875 -7.414062 L 9.136719 -7.414062 C 9.136719 -9.648438 7.429688 -11.089844 4.761719 -11.089844 C 2.203125 -11.089844 0.621094 -9.820312 0.621094 -7.769531 C 0.621094 -5.941406 1.816406 -4.808594 4.265625 -4.34375 C 5.582031 -4.078125 6.21875 -3.675781 6.21875 -3.054688 C 6.21875 -2.511719 5.753906 -2.203125 4.996094 -2.203125 C 4.09375 -2.203125 3.566406 -2.683594 3.566406 -3.519531 L 0.542969 -3.519531 C 0.542969 -1.179688 2.21875 0.234375 5.042969 0.234375 Z M 5.042969 0.234375 "/></g></g></g><g fill="#000000" fill-opacity="1"><g transform="translate(173.546861, 189.079048)"><g><path d="M 6.4375 0.234375 C 9.894531 0.234375 12.347656 -2.109375 12.347656 -5.429688 C 12.347656 -8.75 9.894531 -11.089844 6.4375 -11.089844 C 2.976562 -11.089844 0.527344 -8.75 0.527344 -5.429688 C 0.527344 -2.109375 2.976562 0.234375 6.4375 0.234375 Z M 3.707031 -5.429688 C 3.707031 -7.058594 4.839844 -8.191406 6.4375 -8.191406 C 8.050781 -8.191406 9.167969 -7.058594 9.167969 -5.429688 C 9.167969 -3.800781 8.050781 -2.667969 6.4375 -2.667969 C 4.839844 -2.667969 3.707031 -3.800781 3.707031 -5.429688 Z M 3.707031 -5.429688 "/></g></g></g><g fill="#000000" fill-opacity="1"><g transform="translate(186.435693, 189.079048)"><g><path d="M 1.148438 0 L 8.71875 0 L 8.71875 -2.902344 L 4.28125 -2.902344 L 4.28125 -10.859375 L 1.148438 -10.859375 Z M 1.148438 0 "/></g></g></g><g fill="#000000" fill-opacity="1"><g transform="translate(195.540078, 189.079048)"><g><path d="M 5.816406 0.234375 C 8.75 0.234375 10.5625 -1.550781 10.5625 -4.46875 L 10.5625 -10.859375 L 7.445312 -10.859375 L 7.445312 -4.667969 C 7.445312 -3.382812 6.902344 -2.699219 5.816406 -2.699219 C 4.730469 -2.699219 4.1875 -3.382812 4.1875 -4.667969 L 4.1875 -10.859375 L 1.054688 -10.859375 L 1.054688 -4.46875 C 1.054688 -1.550781 2.886719 0.234375 5.816406 0.234375 Z M 5.816406 0.234375 "/></g></g></g><g fill="#000000" fill-opacity="1"><g transform="translate(207.1726, 189.079048)"><g><path d="M 3.738281 0 L 6.855469 0 L 6.855469 -7.957031 L 10.160156 -7.957031 L 10.160156 -10.859375 L 0.433594 -10.859375 L 0.433594 -7.957031 L 3.738281 -7.957031 Z M 3.738281 0 "/></g></g></g><g fill="#000000" fill-opacity="1"><g transform="translate(217.765947, 189.079048)"><g><path d="M 1.148438 0 L 4.28125 0 L 4.28125 -10.859375 L 1.148438 -10.859375 Z M 1.148438 0 "/></g></g></g><g fill="#000000" fill-opacity="1"><g transform="translate(223.194459, 189.079048)"><g><path d="M 6.4375 0.234375 C 9.894531 0.234375 12.347656 -2.109375 12.347656 -5.429688 C 12.347656 -8.75 9.894531 -11.089844 6.4375 -11.089844 C 2.976562 -11.089844 0.527344 -8.75 0.527344 -5.429688 C 0.527344 -2.109375 2.976562 0.234375 6.4375 0.234375 Z M 3.707031 -5.429688 C 3.707031 -7.058594 4.839844 -8.191406 6.4375 -8.191406 C 8.050781 -8.191406 9.167969 -7.058594 9.167969 -5.429688 C 9.167969 -3.800781 8.050781 -2.667969 6.4375 -2.667969 C 4.839844 -2.667969 3.707031 -3.800781 3.707031 -5.429688 Z M 3.707031 -5.429688 "/></g></g></g><g fill="#000000" fill-opacity="1"><g transform="translate(236.083291, 189.079048)"><g><path d="M 1.148438 0 L 4.25 0 L 4.25 -5.539062 L 8.375 0 L 10.917969 0 L 10.917969 -10.859375 L 7.832031 -10.859375 L 7.832031 -5.351562 L 3.707031 -10.859375 L 1.148438 -10.859375 Z M 1.148438 0 "/></g></g></g><g fill="#000000" fill-opacity="1"><g transform="translate(248.165601, 189.079048)"><g><path d="M 5.042969 0.234375 C 7.738281 0.234375 9.335938 -1.039062 9.335938 -3.179688 C 9.335938 -4.980469 8.175781 -6.035156 5.539062 -6.625 C 4.140625 -6.933594 3.628906 -7.273438 3.628906 -7.832031 C 3.628906 -8.359375 4.09375 -8.6875 4.824219 -8.6875 C 5.691406 -8.6875 6.1875 -8.234375 6.1875 -7.414062 L 9.136719 -7.414062 C 9.136719 -9.648438 7.429688 -11.089844 4.761719 -11.089844 C 2.203125 -11.089844 0.621094 -9.820312 0.621094 -7.769531 C 0.621094 -5.941406 1.816406 -4.808594 4.265625 -4.34375 C 5.582031 -4.078125 6.21875 -3.675781 6.21875 -3.054688 C 6.21875 -2.511719 5.753906 -2.203125 4.996094 -2.203125 C 4.09375 -2.203125 3.566406 -2.683594 3.566406 -3.519531 L 0.542969 -3.519531 C 0.542969 -1.179688 2.21875 0.234375 5.042969 0.234375 Z M 5.042969 0.234375 "/></g></g></g><g fill="#000000" fill-opacity="1"><g transform="translate(170.890644, 197.580574)"><g><path d="M 0.511719 0 L 0.953125 0 L 0.953125 -3.511719 L 0.511719 -3.511719 Z M 0.511719 0 "/></g></g></g><g fill="#000000" fill-opacity="1"><g transform="translate(172.355178, 197.580574)"><g><path d="M 0.511719 0 L 0.949219 0 L 0.949219 -2.75 L 2.890625 0 L 3.300781 0 L 3.300781 -3.511719 L 2.867188 -3.511719 L 2.867188 -0.761719 L 0.929688 -3.511719 L 0.511719 -3.511719 Z M 0.511719 0 "/></g></g></g><g fill="#000000" fill-opacity="1"><g transform="translate(176.166984, 197.580574)"><g><path d="M 0.511719 0 L 0.949219 0 L 0.949219 -2.75 L 2.890625 0 L 3.300781 0 L 3.300781 -3.511719 L 2.867188 -3.511719 L 2.867188 -0.761719 L 0.929688 -3.511719 L 0.511719 -3.511719 Z M 0.511719 0 "/></g></g></g><g fill="#000000" fill-opacity="1"><g transform="translate(179.97879, 197.580574)"><g><path d="M 2.105469 0.0664062 C 3.175781 0.0664062 3.925781 -0.6875 3.925781 -1.753906 C 3.925781 -2.824219 3.175781 -3.578125 2.105469 -3.578125 C 1.039062 -3.578125 0.289062 -2.824219 0.289062 -1.753906 C 0.289062 -0.6875 1.039062 0.0664062 2.105469 0.0664062 Z M 0.742188 -1.753906 C 0.742188 -2.574219 1.300781 -3.136719 2.105469 -3.136719 C 2.914062 -3.136719 3.472656 -2.574219 3.472656 -1.753906 C 3.472656 -0.9375 2.914062 -0.375 2.105469 -0.375 C 1.300781 -0.375 0.742188 -0.9375 0.742188 -1.753906 Z M 0.742188 -1.753906 "/></g></g></g><g fill="#000000" fill-opacity="1"><g transform="translate(184.191843, 197.580574)"><g><path d="M 1.484375 0 L 1.894531 0 L 3.289062 -3.511719 L 2.824219 -3.511719 L 2.238281 -2.03125 L 1.691406 -0.636719 L 1.136719 -2.03125 L 0.558594 -3.511719 L 0.0859375 -3.511719 Z M 1.484375 0 "/></g></g></g><g fill="#000000" fill-opacity="1"><g transform="translate(187.567301, 197.580574)"><g><path d="M 0.0859375 0 L 0.558594 0 L 0.878906 -0.796875 L 2.589844 -0.796875 L 2.917969 0 L 3.386719 0 L 1.941406 -3.511719 L 1.53125 -3.511719 Z M 1.046875 -1.207031 L 1.734375 -2.894531 L 2.421875 -1.207031 Z M 1.046875 -1.207031 "/></g></g></g><g fill="#000000" fill-opacity="1"><g transform="translate(191.038053, 197.580574)"><g><path d="M 1.359375 0 L 1.800781 0 L 1.800781 -3.089844 L 2.984375 -3.089844 L 2.984375 -3.511719 L 0.171875 -3.511719 L 0.171875 -3.089844 L 1.359375 -3.089844 Z M 1.359375 0 "/></g></g></g><g fill="#000000" fill-opacity="1"><g transform="translate(194.197841, 197.580574)"><g><path d="M 0.511719 0 L 2.699219 0 L 2.699219 -0.410156 L 0.953125 -0.410156 L 0.953125 -1.585938 L 2.519531 -1.585938 L 2.519531 -1.992188 L 0.953125 -1.992188 L 0.953125 -3.101562 L 2.644531 -3.101562 L 2.644531 -3.511719 L 0.511719 -3.511719 Z M 0.511719 0 "/></g></g></g><g fill="#000000" fill-opacity="1"><g transform="translate(197.222209, 197.580574)"><g><path d="M 0.640625 0.0390625 C 0.847656 0.0390625 0.984375 -0.101562 0.984375 -0.289062 C 0.984375 -0.480469 0.847656 -0.617188 0.640625 -0.617188 C 0.441406 -0.617188 0.304688 -0.480469 0.304688 -0.289062 C 0.304688 -0.101562 0.441406 0.0390625 0.640625 0.0390625 Z M 0.640625 0.0390625 "/></g></g></g><g fill="#000000" fill-opacity="1"><g transform="translate(198.511205, 197.580574)"><g/></g></g><g fill="#000000" fill-opacity="1"><g transform="translate(199.755056, 197.580574)"><g><path d="M 1.359375 0 L 1.800781 0 L 1.800781 -3.089844 L 2.984375 -3.089844 L 2.984375 -3.511719 L 0.171875 -3.511719 L 0.171875 -3.089844 L 1.359375 -3.089844 Z M 1.359375 0 "/></g></g></g><g fill="#000000" fill-opacity="1"><g transform="translate(202.914844, 197.580574)"><g><path d="M 0.511719 0 L 0.953125 0 L 0.953125 -1.257812 L 1.726562 -1.257812 L 2.582031 0 L 3.113281 0 L 2.230469 -1.304688 C 2.742188 -1.429688 3.058594 -1.816406 3.058594 -2.382812 C 3.058594 -3.078125 2.578125 -3.511719 1.851562 -3.511719 L 0.511719 -3.511719 Z M 0.953125 -1.679688 L 0.953125 -3.089844 L 1.800781 -3.089844 C 2.3125 -3.089844 2.609375 -2.828125 2.609375 -2.382812 C 2.609375 -1.9375 2.3125 -1.679688 1.800781 -1.679688 Z M 0.953125 -1.679688 "/></g></g></g><g fill="#000000" fill-opacity="1"><g transform="translate(206.330422, 197.580574)"><g><path d="M 0.0859375 0 L 0.558594 0 L 0.878906 -0.796875 L 2.589844 -0.796875 L 2.917969 0 L 3.386719 0 L 1.941406 -3.511719 L 1.53125 -3.511719 Z M 1.046875 -1.207031 L 1.734375 -2.894531 L 2.421875 -1.207031 Z M 1.046875 -1.207031 "/></g></g></g><g fill="#000000" fill-opacity="1"><g transform="translate(209.801174, 197.580574)"><g><path d="M 0.511719 0 L 0.949219 0 L 0.949219 -2.75 L 2.890625 0 L 3.300781 0 L 3.300781 -3.511719 L 2.867188 -3.511719 L 2.867188 -0.761719 L 0.929688 -3.511719 L 0.511719 -3.511719 Z M 0.511719 0 "/></g></g></g><g fill="#000000" fill-opacity="1"><g transform="translate(213.61298, 197.580574)"><g><path d="M 1.679688 0.0664062 C 2.449219 0.0664062 2.945312 -0.3125 2.945312 -0.921875 C 2.945312 -1.441406 2.597656 -1.75 1.699219 -1.972656 C 1.019531 -2.136719 0.792969 -2.316406 0.792969 -2.609375 C 0.792969 -2.945312 1.09375 -3.15625 1.59375 -3.15625 C 2.113281 -3.15625 2.433594 -2.894531 2.441406 -2.472656 L 2.878906 -2.472656 C 2.875 -3.15625 2.382812 -3.578125 1.59375 -3.578125 C 0.828125 -3.578125 0.339844 -3.199219 0.339844 -2.609375 C 0.339844 -2.066406 0.726562 -1.765625 1.589844 -1.558594 C 2.222656 -1.410156 2.488281 -1.234375 2.488281 -0.90625 C 2.488281 -0.5625 2.175781 -0.355469 1.679688 -0.355469 C 1.132812 -0.355469 0.753906 -0.628906 0.742188 -1.078125 L 0.300781 -1.078125 C 0.304688 -0.390625 0.84375 0.0664062 1.679688 0.0664062 Z M 1.679688 0.0664062 "/></g></g></g><g fill="#000000" fill-opacity="1"><g transform="translate(216.858031, 197.580574)"><g><path d="M 0.511719 0 L 0.953125 0 L 0.953125 -1.480469 L 2.390625 -1.480469 L 2.390625 -1.886719 L 0.953125 -1.886719 L 0.953125 -3.101562 L 2.523438 -3.101562 L 2.523438 -3.511719 L 0.511719 -3.511719 Z M 0.511719 0 "/></g></g></g><g fill="#000000" fill-opacity="1"><g transform="translate(219.656698, 197.580574)"><g><path d="M 2.105469 0.0664062 C 3.175781 0.0664062 3.925781 -0.6875 3.925781 -1.753906 C 3.925781 -2.824219 3.175781 -3.578125 2.105469 -3.578125 C 1.039062 -3.578125 0.289062 -2.824219 0.289062 -1.753906 C 0.289062 -0.6875 1.039062 0.0664062 2.105469 0.0664062 Z M 0.742188 -1.753906 C 0.742188 -2.574219 1.300781 -3.136719 2.105469 -3.136719 C 2.914062 -3.136719 3.472656 -2.574219 3.472656 -1.753906 C 3.472656 -0.9375 2.914062 -0.375 2.105469 -0.375 C 1.300781 -0.375 0.742188 -0.9375 0.742188 -1.753906 Z M 0.742188 -1.753906 "/></g></g></g><g fill="#000000" fill-opacity="1"><g transform="translate(223.869751, 197.580574)"><g><path d="M 0.511719 0 L 0.953125 0 L 0.953125 -1.257812 L 1.726562 -1.257812 L 2.582031 0 L 3.113281 0 L 2.230469 -1.304688 C 2.742188 -1.429688 3.058594 -1.816406 3.058594 -2.382812 C 3.058594 -3.078125 2.578125 -3.511719 1.851562 -3.511719 L 0.511719 -3.511719 Z M 0.953125 -1.679688 L 0.953125 -3.089844 L 1.800781 -3.089844 C 2.3125 -3.089844 2.609375 -2.828125 2.609375 -2.382812 C 2.609375 -1.9375 2.3125 -1.679688 1.800781 -1.679688 Z M 0.953125 -1.679688 "/></g></g></g><g fill="#000000" fill-opacity="1"><g transform="translate(227.285329, 197.580574)"><g><path d="M 0.511719 0 L 0.953125 0 L 0.953125 -2.6875 L 2.117188 -0.933594 L 2.476562 -0.933594 L 3.640625 -2.683594 L 3.640625 0 L 4.082031 0 L 4.082031 -3.511719 L 3.671875 -3.511719 L 2.300781 -1.429688 L 0.921875 -3.511719 L 0.511719 -3.511719 Z M 0.511719 0 "/></g></g></g><g fill="#000000" fill-opacity="1"><g transform="translate(231.879561, 197.580574)"><g><path d="M 0.640625 0.0390625 C 0.847656 0.0390625 0.984375 -0.101562 0.984375 -0.289062 C 0.984375 -0.480469 0.847656 -0.617188 0.640625 -0.617188 C 0.441406 -0.617188 0.304688 -0.480469 0.304688 -0.289062 C 0.304688 -0.101562 0.441406 0.0390625 0.640625 0.0390625 Z M 0.640625 0.0390625 "/></g></g></g><g fill="#000000" fill-opacity="1"><g transform="translate(233.168557, 197.580574)"><g/></g></g><g fill="#000000" fill-opacity="1"><g transform="translate(234.412408, 197.580574)"><g><path d="M 0.511719 0 L 2.699219 0 L 2.699219 -0.410156 L 0.953125 -0.410156 L 0.953125 -1.585938 L 2.519531 -1.585938 L 2.519531 -1.992188 L 0.953125 -1.992188 L 0.953125 -3.101562 L 2.644531 -3.101562 L 2.644531 -3.511719 L 0.511719 -3.511719 Z M 0.511719 0 "/></g></g></g><g fill="#000000" fill-opacity="1"><g transform="translate(237.436776, 197.580574)"><g><path d="M 0.191406 0 L 0.71875 0 L 1.726562 -1.460938 L 2.015625 -1.039062 L 2.734375 0 L 3.253906 0 L 1.996094 -1.800781 L 3.195312 -3.511719 L 2.679688 -3.511719 L 2.019531 -2.566406 L 1.726562 -2.125 L 0.765625 -3.511719 L 0.242188 -3.511719 L 1.445312 -1.796875 Z M 0.191406 0 "/></g></g></g><g fill="#000000" fill-opacity="1"><g transform="translate(240.88245, 197.580574)"><g><path d="M 2.066406 0.0664062 C 2.917969 0.0664062 3.613281 -0.453125 3.820312 -1.234375 L 3.355469 -1.234375 C 3.175781 -0.707031 2.679688 -0.375 2.082031 -0.375 C 1.300781 -0.375 0.742188 -0.941406 0.742188 -1.753906 C 0.742188 -2.566406 1.300781 -3.136719 2.082031 -3.136719 C 2.664062 -3.136719 3.140625 -2.824219 3.320312 -2.316406 L 3.792969 -2.316406 C 3.5625 -3.089844 2.894531 -3.578125 2.066406 -3.578125 C 1.035156 -3.578125 0.289062 -2.8125 0.289062 -1.753906 C 0.289062 -0.695312 1.035156 0.0664062 2.066406 0.0664062 Z M 2.066406 0.0664062 "/></g></g></g><g fill="#000000" fill-opacity="1"><g transform="translate(244.975131, 197.580574)"><g><path d="M 0.511719 0 L 2.699219 0 L 2.699219 -0.410156 L 0.953125 -0.410156 L 0.953125 -1.585938 L 2.519531 -1.585938 L 2.519531 -1.992188 L 0.953125 -1.992188 L 0.953125 -3.101562 L 2.644531 -3.101562 L 2.644531 -3.511719 L 0.511719 -3.511719 Z M 0.511719 0 "/></g></g></g><g fill="#000000" fill-opacity="1"><g transform="translate(247.9995, 197.580574)"><g><path d="M 0.511719 0 L 2.660156 0 L 2.660156 -0.421875 L 0.953125 -0.421875 L 0.953125 -3.511719 L 0.511719 -3.511719 Z M 0.511719 0 "/></g></g></g></svg>