<?xml version="1.0" standalone="no"?>
<!DOCTYPE svg PUBLIC "-//W3C//DTD SVG 20010904//EN"
 "http://www.w3.org/TR/2001/REC-SVG-20010904/DTD/svg10.dtd">
<svg version="1.0" xmlns="http://www.w3.org/2000/svg"
 width="600.000000pt" height="327.000000pt" viewBox="0 0 600.000000 327.000000"
 preserveAspectRatio="xMidYMid meet">

<g transform="translate(0.000000,327.000000) scale(0.100000,-0.100000)"
fill="#000000" stroke="none">
<path d="M0 1635 l0 -1635 3000 0 3000 0 0 1635 0 1635 -3000 0 -3000 0 0
-1635z m3152 1008 l188 -188 0 52 c0 29 5 55 10 58 6 4 33 4 60 0 l50 -7 0
-111 0 -112 187 -187 188 -188 -120 0 -120 0 -317 317 -318 318 -318 -318
-317 -317 -120 0 -120 0 435 435 c239 239 437 435 440 435 3 0 89 -84 192
-187z m-886 -243 c44 -45 80 -86 82 -93 1 -7 -16 -30 -38 -52 l-40 -39 -38 37
c-21 20 -41 37 -44 37 -4 0 -81 -74 -172 -165 l-166 -165 -646 0 -645 0 3 28
3 27 579 2 580 2 230 230 c127 127 232 231 232 231 1 0 37 -36 80 -80z m1699
-150 l231 -231 566 1 c312 0 574 -3 582 -6 9 -3 16 -17 16 -30 l0 -24 -647 0
-647 0 -168 167 -168 167 -40 -39 -40 -39 -47 47 -48 47 85 85 c46 47 87 85
90 85 3 0 109 -104 235 -230z m-944 15 c55 -29 69 -67 69 -187 l0 -108 -130 0
-130 0 0 119 c0 99 3 122 18 140 41 49 117 64 173 36z m-1922 -496 c25 -9 31
-16 31 -40 l0 -29 -40 26 c-34 22 -48 26 -90 22 -35 -4 -59 -13 -77 -29 -74
-68 -71 -197 6 -262 27 -22 42 -27 87 -27 30 0 69 7 85 16 29 14 31 14 27 -3
-7 -38 -110 -64 -173 -43 -47 16 -104 66 -121 107 -27 64 -11 166 34 217 43
48 157 71 231 45z m256 1 c52 -12 85 -50 85 -97 0 -29 -8 -43 -40 -74 l-39
-37 56 -71 c31 -39 60 -71 65 -71 4 0 8 -4 8 -10 0 -5 -13 -10 -29 -10 -25 0
-40 13 -100 90 -39 49 -71 92 -71 95 0 3 9 5 20 5 82 0 115 97 48 144 -12 9
-35 16 -51 16 l-28 0 3 -175 3 -175 -30 0 -30 0 0 190 0 190 45 0 c25 0 63 -5
85 -10z m461 -9 c74 -34 112 -110 99 -202 -8 -57 -50 -121 -97 -146 -50 -27
-153 -24 -200 5 -60 37 -83 84 -83 168 0 61 4 76 28 112 54 77 163 104 253 63z
m439 5 c27 -12 35 -21 35 -40 0 -32 -1 -32 -46 -1 -64 44 -157 26 -198 -38
-43 -64 -25 -181 35 -232 25 -20 41 -25 85 -25 30 0 68 7 84 15 33 17 48 5 22
-17 -67 -59 -192 -44 -254 30 -80 96 -51 254 55 303 50 22 134 25 182 5z m178
-73 l-4 -88 86 88 c62 62 93 87 110 87 24 0 35 -15 16 -22 -5 -1 -44 -36 -86
-77 -91 -87 -93 -74 27 -200 l78 -81 -33 0 c-28 -1 -43 11 -115 87 l-83 88 3
-88 3 -87 -30 0 -30 0 0 190 0 190 31 0 30 0 -3 -87z m485 53 c3 -28 3 -28
-19 -12 -13 9 -43 16 -66 16 l-43 0 0 -76 0 -76 60 4 c55 4 60 3 60 -16 0 -19
-5 -21 -60 -18 l-60 4 0 -71 0 -71 51 0 c28 0 59 5 70 10 16 9 19 7 19 -15 l0
-25 -97 0 -98 0 0 190 0 191 90 -3 90 -3 3 -29z m326 18 c14 -36 8 -44 -21
-28 -16 7 -41 14 -56 14 l-28 0 3 -175 3 -175 -30 0 -30 0 0 172 0 173 -28 3
c-16 2 -39 -4 -53 -13 -23 -15 -24 -15 -24 8 0 13 3 27 7 30 3 4 61 7 129 7
102 0 123 -3 128 -16z m297 -13 c8 -21 7 -23 -13 -16 -13 4 -39 8 -58 9 l-35
1 -3 -153 c-1 -94 2 -160 8 -172 10 -18 7 -20 -30 -20 -37 0 -40 2 -30 19 5
11 10 86 10 171 0 170 -1 172 -74 152 -48 -12 -51 -11 -36 17 10 20 18 21 132
19 117 -3 121 -4 129 -27z m363 8 c39 -31 35 -70 -13 -122 l-39 -42 43 -49 43
-50 21 43 c12 23 21 55 19 69 -3 24 1 27 30 30 17 2 32 0 32 -3 0 -9 -59 -127
-71 -141 -12 -15 54 -64 86 -64 19 0 18 -1 -3 -22 l-23 -23 -50 28 -49 27 -31
-22 c-22 -17 -44 -23 -81 -23 -42 0 -53 4 -74 28 -38 44 -33 101 11 142 l34
33 -19 38 c-27 53 -25 81 9 115 36 36 86 39 125 8z m625 10 c25 -9 31 -16 31
-40 l0 -29 -40 26 c-34 22 -48 26 -90 22 -35 -4 -59 -13 -77 -29 -74 -68 -71
-197 6 -262 27 -22 42 -27 87 -27 30 0 69 7 85 16 29 14 31 14 27 -3 -4 -21
-43 -42 -93 -50 -78 -13 -170 40 -201 114 -27 64 -11 166 34 217 43 48 157 71
231 45z m388 -10 c86 -42 121 -166 73 -264 -61 -127 -247 -139 -334 -22 -30
41 -35 150 -8 203 11 21 28 47 39 56 55 50 158 62 230 27z m216 -321 c6 -18
-11 -48 -27 -48 -20 0 -37 25 -30 44 7 19 50 22 57 4z m275 -225 l3 -23 -2425
0 c-1680 0 -2427 3 -2431 10 -4 6 -4 18 -1 25 5 13 316 15 2428 13 l2423 -3 3
-22z m-3552 -208 c21 -29 17 -62 -11 -88 l-26 -23 41 -46 c45 -52 48 -58 21
-58 -11 0 -37 23 -62 57 l-44 57 -3 -57 c-2 -46 -6 -57 -20 -57 -15 0 -17 14
-17 121 l0 121 54 -4 c37 -4 58 -11 67 -23z m254 11 c0 -11 -10 -13 -40 -9
l-40 6 0 -48 0 -47 40 4 c28 2 40 0 40 -9 0 -8 -14 -13 -40 -13 l-40 0 0 -40
c0 -47 17 -59 61 -43 26 10 29 9 29 -8 0 -17 -8 -19 -62 -19 l-63 0 0 120 0
120 58 0 c42 0 57 -4 57 -14z m245 -73 c18 -45 40 -96 49 -114 20 -40 20 -39
-7 -39 -19 0 -25 8 -35 46 l-12 45 -43 -3 c-40 -3 -43 -5 -57 -45 -8 -24 -20
-43 -27 -43 -7 0 -13 3 -13 7 0 19 96 233 103 230 5 -1 24 -39 42 -84z m197
-24 l-4 -112 51 7 c43 6 50 4 45 -9 -5 -11 -21 -15 -64 -15 l-59 0 -3 120 c-3
114 -2 120 17 120 19 0 20 -6 17 -111z m448 97 c0 -11 -10 -13 -40 -9 l-40 6
0 -47 0 -46 40 0 c22 0 40 -4 40 -10 0 -5 -18 -10 -40 -10 l-40 0 0 -45 c0
-42 2 -45 26 -45 14 0 34 5 45 10 16 9 19 7 19 -10 0 -18 -6 -20 -62 -20 l-63
0 0 120 0 120 58 0 c42 0 57 -4 57 -14z m229 -16 c3 -24 3 -25 -17 -7 -29 27
-66 19 -70 -15 -3 -23 3 -30 37 -48 69 -35 83 -76 43 -122 -27 -32 -112 -21
-112 13 0 18 1 19 24 3 32 -21 67 -15 77 14 9 25 -1 37 -61 75 -68 44 -45 121
34 115 35 -3 42 -7 45 -28z m268 13 c3 -8 -6 -10 -31 -6 l-36 6 0 -112 c0 -99
-2 -111 -17 -111 -16 0 -18 12 -18 107 l0 108 -32 -1 c-23 -1 -33 3 -33 12 0
12 16 14 82 12 52 -2 83 -7 85 -15z m232 -90 c24 -60 46 -114 48 -120 3 -8 -3
-13 -14 -13 -13 0 -23 13 -33 43 -14 39 -18 42 -56 45 -35 3 -42 0 -52 -23 -7
-14 -12 -35 -12 -45 0 -13 -7 -20 -20 -20 -11 0 -20 1 -20 3 0 2 15 39 34 83
19 43 41 96 50 117 8 20 19 37 23 37 5 0 28 -48 52 -107z m295 92 c5 -13 0
-15 -29 -9 l-35 6 0 -111 c0 -104 -1 -111 -20 -111 -19 0 -20 7 -20 111 l0
111 -35 -6 c-29 -6 -34 -4 -29 9 5 12 23 15 84 15 61 0 79 -3 84 -15z m216 1
c0 -11 -10 -13 -40 -9 l-40 6 0 -47 0 -48 37 4 c22 2 38 -2 41 -10 2 -8 -9
-12 -37 -12 l-41 0 0 -46 0 -47 46 7 c34 4 45 3 42 -7 -3 -7 -28 -13 -64 -15
l-59 -3 0 121 0 120 58 0 c42 0 57 -4 57 -14z"/>
<path d="M1630 1712 c-115 -115 -10 -328 139 -283 47 13 77 48 92 103 29 110
-45 218 -150 218 -37 0 -49 -6 -81 -38z"/>
<path d="M3805 1736 c-18 -27 -13 -59 14 -94 l18 -24 26 32 c31 37 34 70 9 93
-26 24 -49 21 -67 -7z"/>
<path d="M3776 1548 c-22 -31 -20 -60 5 -92 24 -31 72 -35 107 -10 l23 16 -48
51 c-26 29 -53 53 -60 55 -6 2 -18 -7 -27 -20z"/>
<path d="M4744 1731 c-40 -25 -64 -77 -64 -141 0 -71 30 -124 87 -151 73 -35
140 -11 179 63 20 39 18 126 -5 168 -39 74 -130 102 -197 61z"/>
<path d="M1770 961 c0 -46 1 -49 23 -44 12 3 28 10 35 16 28 22 1 77 -39 77
-16 0 -19 -7 -19 -49z"/>
<path d="M2292 945 c-17 -38 -15 -45 14 -45 24 0 25 3 19 28 -10 40 -20 46
-33 17z"/>
<path d="M3656 940 c-14 -34 -14 -35 11 -38 34 -5 36 -1 19 39 l-15 34 -15
-35z"/>
</g>
</svg>
